<?xml version="1.0" encoding="UTF-8" standalone="no"?>
<!-- Created with Inkscape (http://www.inkscape.org/) -->

<svg
   xmlns:dc="http://purl.org/dc/elements/1.1/"
   xmlns:cc="http://creativecommons.org/ns#"
   xmlns:rdf="http://www.w3.org/1999/02/22-rdf-syntax-ns#"
   xmlns:svg="http://www.w3.org/2000/svg"
   xmlns="http://www.w3.org/2000/svg"
   xmlns:sodipodi="http://sodipodi.sourceforge.net/DTD/sodipodi-0.dtd"
   xmlns:inkscape="http://www.inkscape.org/namespaces/inkscape"
   width="256"
   height="256"
   viewBox="0 0 67.733332 67.733335"
   version="1.1"
   id="svg8"
   inkscape:version="0.92.3 (2405546, 2018-03-11)"
   sodipodi:docname="icon.svg">
  <defs
     id="defs2" />
  <sodipodi:namedview
     id="base"
     pagecolor="#ffffff"
     bordercolor="#666666"
     borderopacity="1.0"
     inkscape:pageopacity="0"
     inkscape:pageshadow="2"
     inkscape:zoom="1.4"
     inkscape:cx="163.33653"
     inkscape:cy="143.19867"
     inkscape:document-units="mm"
     inkscape:current-layer="layer1"
     showgrid="true"
     units="px"
     inkscape:window-width="2560"
     inkscape:window-height="1377"
     inkscape:window-x="-8"
     inkscape:window-y="-8"
     inkscape:window-maximized="1"
     inkscape:pagecheckerboard="false">
    <inkscape:grid
       type="xygrid"
       id="grid1378"
       spacingx="33.866667"
       spacingy="33.866667" />
  </sodipodi:namedview>
  <metadata
     id="metadata5">
    <rdf:RDF>
      <cc:Work
         rdf:about="">
        <dc:format>image/svg+xml</dc:format>
        <dc:type
           rdf:resource="http://purl.org/dc/dcmitype/StillImage" />
        <dc:title></dc:title>
      </cc:Work>
    </rdf:RDF>
  </metadata>
  <g
     inkscape:label="Ebene 1"
     inkscape:groupmode="layer"
     id="layer1"
     transform="translate(0,-229.26663)">
    <rect
       style="fill:#d45500;fill-opacity:1;stroke-width:0.12833551"
       id="rect1366"
       width="12.284225"
       height="12.284225"
       x="-67.733337"
       y="229.26663" />
    <rect
       style="fill:#d45500;fill-opacity:1;stroke-width:0.28001738"
       id="rect1376"
       width="67.733337"
       height="67.733337"
       x="0"
       y="229.26663"
       ry="20" />
    <g
       id="g5158"
       transform="matrix(0.09784736,0,0,0.10615689,8.8666662,236.01016)"
       style="fill:#ffffff">
      <g
         id="g5097"
         style="fill:#ffffff">
	<path
   id="path5085"
   d="m 484.173,113.017 -13.241,-1.986 C 470.973,109.852 471,108.674 471,107.5 471,59.252 431.748,20 383.5,20 336.906,20 298.706,56.608 296.142,102.572 L 167.03,131.915 34.634,118.675 c -8.837,-0.881 -17.685,2.028 -24.271,7.988 C 3.777,132.623 0,141.137 0,150.019 V 445.78 c 0,16.251 12.194,29.726 28.366,31.344 l 138.388,13.839 c 0.254,0.025 0.505,0.038 0.755,0.038 0.268,0 0.532,-0.018 0.793,-0.046 0.042,-0.005 0.085,-0.013 0.127,-0.018 0.222,-0.028 0.442,-0.064 0.658,-0.111 0.024,-0.005 0.049,-0.007 0.074,-0.012 l 174.622,-39.687 131.043,19.657 c 1.562,0.234 3.125,0.35 4.683,0.35 7.491,0 14.787,-2.673 20.545,-7.633 C 507.011,457.51 511,448.81 511,439.631 V 144.168 c 0,-15.719 -11.283,-28.82 -26.827,-31.151 z M 383.5,35 c 39.977,0 72.5,32.523 72.5,72.5 0,2.953 -0.154,5.878 -0.435,8.777 -0.002,0.011 -0.005,0.021 -0.006,0.032 -0.032,0.213 -0.049,0.424 -0.063,0.635 -5.582,53.604 -56.784,97.295 -72.036,109.202 C 367.291,213.725 311,166.256 311,107.5 311,67.523 343.523,35 383.5,35 Z M 15,445.78 V 150.019 c 0,-4.721 1.928,-9.066 5.428,-12.233 3.5,-3.168 8.016,-4.658 12.714,-4.185 L 160,146.287 V 475.212 L 29.858,462.198 C 21.388,461.351 15,454.292 15,445.78 Z m 160,28.324 V 145.486 l 121.52,-27.618 c 2.712,27.793 16.212,56.507 39.48,83.786 v 235.858 z m 321,-34.473 c 0,4.808 -2.089,9.365 -5.733,12.503 -3.643,3.137 -8.462,4.528 -13.214,3.815 L 351,437.041 V 217.728 c 15.137,14.87 27.588,23.496 28.251,23.951 1.28,0.88 2.765,1.32 4.249,1.32 1.505,0 3.01,-0.452 4.301,-1.356 0.848,-0.593 20.989,-14.797 41.359,-38.223 22.041,-25.347 35.708,-51.791 40.198,-77.459 l 12.59,1.888 C 490.09,129.07 496,135.933 496,144.166 Z"
   inkscape:connector-curvature="0"
   style="fill:#ffffff" />

	<path
   id="path5087"
   d="m 447.5,356 c -12.958,0 -23.5,10.542 -23.5,23.5 0,12.958 10.542,23.5 23.5,23.5 12.958,0 23.5,-10.542 23.5,-23.5 0,-12.958 -10.542,-23.5 -23.5,-23.5 z m 0,32 c -4.687,0 -8.5,-3.813 -8.5,-8.5 0,-4.687 3.813,-8.5 8.5,-8.5 4.687,0 8.5,3.813 8.5,8.5 0,4.687 -3.813,8.5 -8.5,8.5 z"
   inkscape:connector-curvature="0"
   style="fill:#ffffff" />

	<path
   id="path5089"
   d="m 223.5,172 c -12.958,0 -23.5,10.542 -23.5,23.5 0,12.958 10.542,23.5 23.5,23.5 12.958,0 23.5,-10.542 23.5,-23.5 0,-12.958 -10.542,-23.5 -23.5,-23.5 z m 0,32 c -4.687,0 -8.5,-3.813 -8.5,-8.5 0,-4.687 3.813,-8.5 8.5,-8.5 4.687,0 8.5,3.813 8.5,8.5 0,4.687 -3.813,8.5 -8.5,8.5 z"
   inkscape:connector-curvature="0"
   style="fill:#ffffff" />

	<path
   id="path5091"
   d="M 71.5,364 C 58.542,364 48,374.542 48,387.5 48,400.458 58.542,411 71.5,411 84.458,411 95,400.458 95,387.5 95,374.542 84.458,364 71.5,364 Z m 0,32 c -4.687,0 -8.5,-3.813 -8.5,-8.5 0,-4.687 3.813,-8.5 8.5,-8.5 4.687,0 8.5,3.813 8.5,8.5 0,4.687 -3.813,8.5 -8.5,8.5 z"
   inkscape:connector-curvature="0"
   style="fill:#ffffff" />

	<path
   id="path5093"
   d="m 404.803,254.196 c -2.929,-2.929 -7.678,-2.929 -10.606,0 L 383.5,264.893 372.803,254.196 c -2.929,-2.929 -7.678,-2.929 -10.606,0 -2.929,2.929 -2.929,7.678 0,10.606 l 10.697,10.697 -10.697,10.697 c -2.929,2.929 -2.929,7.678 0,10.606 1.464,1.464 3.384,2.197 5.303,2.197 1.919,0 3.839,-0.732 5.303,-2.197 l 10.697,-10.697 10.697,10.697 c 1.464,1.464 3.384,2.197 5.303,2.197 1.919,0 3.839,-0.732 5.303,-2.197 2.929,-2.929 2.929,-7.678 0,-10.606 L 394.106,275.5 404.803,264.803 c 2.929,-2.929 2.929,-7.678 0,-10.607 z"
   inkscape:connector-curvature="0"
   style="fill:#ffffff" />

	<path
   id="path5095"
   d="m 431,107.5 c 0,-6.615 -1.336,-13.021 -3.971,-19.038 -1.662,-3.795 -6.086,-5.523 -9.878,-3.862 -3.794,1.662 -5.523,6.084 -3.862,9.878 1.799,4.109 2.711,8.49 2.711,13.021 0,17.92 -14.58,32.5 -32.5,32.5 -17.92,0 -32.5,-14.579 -32.5,-32.499 0,-17.92 14.58,-32.5 32.5,-32.5 4.527,0 8.905,0.911 13.011,2.707 3.793,1.661 8.217,-0.07 9.877,-3.865 1.66,-3.795 -0.07,-8.217 -3.865,-9.877 C 396.51,61.333 390.109,60 383.5,60 357.309,60 336,81.309 336,107.5 c 0,26.191 21.309,47.5 47.5,47.5 26.191,0 47.5,-21.309 47.5,-47.5 z"
   inkscape:connector-curvature="0"
   style="fill:#ffffff" />

</g>
      <g
         id="g5099"
         style="fill:#ffffff">
</g>
      <g
         id="g5101"
         style="fill:#ffffff">
</g>
      <g
         id="g5103"
         style="fill:#ffffff">
</g>
      <g
         id="g5105"
         style="fill:#ffffff">
</g>
      <g
         id="g5107"
         style="fill:#ffffff">
</g>
      <g
         id="g5109"
         style="fill:#ffffff">
</g>
      <g
         id="g5111"
         style="fill:#ffffff">
</g>
      <g
         id="g5113"
         style="fill:#ffffff">
</g>
      <g
         id="g5115"
         style="fill:#ffffff">
</g>
      <g
         id="g5117"
         style="fill:#ffffff">
</g>
      <g
         id="g5119"
         style="fill:#ffffff">
</g>
      <g
         id="g5121"
         style="fill:#ffffff">
</g>
      <g
         id="g5123"
         style="fill:#ffffff">
</g>
      <g
         id="g5125"
         style="fill:#ffffff">
</g>
      <g
         id="g5127"
         style="fill:#ffffff">
</g>
    </g>
  </g>
</svg>
